<svg width="20" height="21" viewBox="0 0 20 21" fill="none" xmlns="http://www.w3.org/2000/svg">
<path fill-rule="evenodd" clip-rule="evenodd" d="M18 10.3312C18 14.7388 14.4183 18.3118 10 18.3118C5.58172 18.3118 2 14.7388 2 10.3312C2 5.92365 5.58172 2.35062 10 2.35062C14.4183 2.35062 18 5.92365 18 10.3312ZM20 10.3312C20 15.8406 15.5228 20.307 10 20.307C4.47715 20.307 0 15.8406 0 10.3312C0 4.82176 4.47715 0.355469 10 0.355469C15.5228 0.355469 20 4.82176 20 10.3312ZM13 8.33607C13 8.88701 12.5523 9.33364 12 9.33364C11.4477 9.33364 11 8.88701 11 8.33607C11 7.78513 11.4477 7.33849 12 7.33849C12.5523 7.33849 13 7.78513 13 8.33607ZM15 8.33607C15 9.9889 13.6569 11.3288 12 11.3288C11.5369 11.3288 11.0982 11.224 10.7066 11.0371L9.41421 12.3264L9.70711 12.6186C10.0976 13.0081 10.0976 13.6398 9.70711 14.0293C9.31658 14.4189 8.68342 14.4189 8.29289 14.0293L8 13.7371L7.70711 14.0293C7.31658 14.4189 6.68342 14.4189 6.29289 14.0293C5.90237 13.6398 5.90237 13.0081 6.29289 12.6186L7.29289 11.621L9.29237 9.62635C9.10495 9.23566 9 8.79809 9 8.33607C9 6.68323 10.3431 5.34334 12 5.34334C13.6569 5.34334 15 6.68323 15 8.33607Z" fill="#909EBB"/>
</svg>
